<?xml version="1.0" encoding="UTF-8"?> <!-- Generator: Adobe Illustrator 24.0.0, SVG Export Plug-In . SVG Version: 6.00 Build 0) --> <svg xmlns="http://www.w3.org/2000/svg" xmlns:xlink="http://www.w3.org/1999/xlink" version="1.1" id="Layer_1" x="0px" y="0px" viewBox="0 0 64.3 104" style="enable-background:new 0 0 64.3 104;" xml:space="preserve"> <style type="text/css"> .st0{opacity:0.5;} .st1{fill:#F8F9FA;} .st2{opacity:6.000000e-02;} .st3{fill:#00A9FF;} .st4{opacity:3.000000e-02;} .st5{fill:#5112E5;} </style> <g class="st0"> <circle class="st1" cx="32.2" cy="65.6" r="32.2"></circle> </g> <g class="st2"> <rect x="49.6" class="st3" width="3.7" height="7.4"></rect> </g> <g class="st2"> <rect x="49.6" y="14.9" class="st3" width="3.7" height="7.4"></rect> </g> <g class="st2"> <rect x="49.6" y="29.7" class="st3" width="3.7" height="7.4"></rect> </g> <g class="st2"> <rect x="49.6" y="44.6" class="st3" width="3.7" height="7.4"></rect> </g> <g class="st2"> <rect x="41.2" y="8.4" class="st3" width="3.7" height="7.4"></rect> </g> <g class="st2"> <rect x="41.2" y="23.2" class="st3" width="3.7" height="7.4"></rect> </g> <g class="st2"> <rect x="41.2" y="38.1" class="st3" width="3.7" height="7.4"></rect> </g> <g class="st2"> <rect x="41.2" y="52.9" class="st3" width="3.7" height="7.4"></rect> </g> <g class="st2"> <rect x="32.9" class="st3" width="3.7" height="7.4"></rect> </g> <g class="st2"> <rect x="32.9" y="14.9" class="st3" width="3.7" height="7.4"></rect> </g> <g class="st2"> <rect x="32.9" y="29.7" class="st3" width="3.7" height="7.4"></rect> </g> <g class="st2"> <rect x="32.9" y="44.6" class="st3" width="3.7" height="7.4"></rect> </g> <g class="st2"> <rect x="24.5" y="8.4" class="st3" width="3.7" height="7.4"></rect> </g> <g class="st2"> <rect x="24.5" y="23.2" class="st3" width="3.7" height="7.4"></rect> </g> <g class="st2"> <rect x="24.5" y="38.1" class="st3" width="3.7" height="7.4"></rect> </g> <g class="st2"> <rect x="24.5" y="52.9" class="st3" width="3.7" height="7.4"></rect> </g> <g class="st4"> <path class="st5" d="M42,87.8h18.8L51.4,104L42,87.8z M55.7,90.7h-8.4l4.2,7.3L55.7,90.7z"></path> </g> </svg> 